 <!DOCTYPE svg PUBLIC "-//W3C//DTD SVG 1.1//EN" "http://www.w3.org/Graphics/SVG/1.1/DTD/svg11.dtd">
<svg id="b445078b-56d1-464d-ad66-fdb6226bf0c5" data-name="Layer 1" xmlns="http://www.w3.org/2000/svg" xmlns:xlink="http://www.w3.org/1999/xlink" width="865.76" height="682.89" viewBox="0 0 865.76 682.89">
<defs>
<clipPath id="a570feeb-e9fc-43f6-aad5-e447e824804d">
<rect id="bf5736f8-b927-4ec5-801a-7e102b8078de" data-name="SVGID" x="253.92" y="455.89" width="172.26" height="91.76" fill="none"/>
</clipPath>
<style xmlns="http://www.w3.org/1999/xhtml">*, ::after, ::before { box-sizing: border-box; }
img, svg { vertical-align: middle; }
</style>
<style xmlns="http://www.w3.org/1999/xhtml">*, body, html { -webkit-font-smoothing: antialiased; }
img, svg { max-width: 100%; }
</style>
</defs>
<circle cx="175.57" cy="643.14" r="7.32" fill="#2f2e41" data-secondary="true"/>
<circle cx="251.28" cy="643.14" r="7.32" fill="#2f2e41" data-secondary="true"/>
<rect id="a54ee6fc-4c9a-4bfb-85f2-709b2f4d5c84" data-name="workers-data-rect4" x="36.48" y="96.73" width="270.65" height="121.06" fill="#ccc"/>
<rect id="e1795838-7bf3-4559-8a58-f10e37320091" data-name="workers-data-rect5" x="430.95" y="408.55" width="220.37" height="161" fill="#ccc"/>
<rect x="438.43" y="433.07" width="205.41" height="1.54" fill="#fff"/>
<rect x="438.43" y="469.15" width="205.41" height="1.54" fill="#fff"/>
<rect x="438.43" y="506.16" width="205.41" height="1.54" fill="#fff"/>
<rect x="438.43" y="543.48" width="205.41" height="1.54" fill="#fff"/>
<g id="a96bcafa-eb8f-4d6d-85b7-b139770da66c" data-name="workers-data-clipgrp2 to">
<g id="a8a76f4c-9409-4fc4-bdba-a733eabe0693" data-name="workers-data-clipgrp2">
<g clip-path="url(#a570feeb-e9fc-43f6-aad5-e447e824804d)">
<g id="afab84f2-de6a-437b-bdcb-009c3669d396" data-name="workers-data-g2">
<g id="a0b895ac-cde5-435b-8b9f-47048ba5870e" data-name="workers-data-data3 to">
<g id="a8bfc7b7-ce81-4d37-a081-0141e76bcc8e" data-name="workers-data-data3">
<path id="aa0f8ae2-7c9b-4876-b54a-cbe3d146f767" data-name="workers-data-path32" d="M598,525c-15.27-6.79-32.85,12-47.81,4.32-8.63-4.48-12.64-16.2-17-26.22s-11.57-20.66-21.13-19.43-17.27,14.19-26.52,11.1c-5.86-2-8.64-9.56-10.18-16.5s-2.47-14.65-6.94-19.43-13.73-3.55-14.34,3.55v85.28H626.34c.31.15-23-20.36-28.37-22.67" fill="#1d1d1b"/>
</g>
</g>
</g>
</g>
</g>
</g>
<g id="a5ee45f8-51e3-49f3-b1f8-836a58040424" data-name="workers-data-calendar">
<g id="f577ab11-8171-4fa9-a384-49ebb4f307da" data-name="workers-data-background">
<rect id="f7bcecd0-19f2-4a03-996f-efff7dd33344" data-name="workers-data-rect6" x="665.36" y="24.4" width="163.93" height="173.18" fill="#ccc"/>
</g>
</g>
<path id="b033c32a-890b-4b0d-897e-a35ce420aa1a" data-name="workers-data-path35" d="M600.59,41.67S620,42,611.69,87.32s-7.25,54-7.25,71.86c0,21,14.35,28.53,14.35,28.53H592.42L573.14,81.92V41.67Z" fill="#ccc"/>
<path id="feeb52f6-e651-4e2b-a6a2-5e8f8749b547" data-name="workers-data-polygon4" d="M606.3,398.83H340.43l2.31-307L593.19,76.37Z" fill="#ccc"/>
<path id="feb46151-9ac6-4e2c-a662-bca3c5167d18" data-name="workers-data-polygon5" d="M597.2,391H331.33l2.32-307,258.15-6Z" fill="#ebebeb"/>
<path id="a3bc980d-5879-41a0-a0ec-7f1002a2c56a" data-name="workers-data-polygon6" d="M591.64,382.33H326.4v-307l265.4-.77Z" fill="#fafafa"/>
<path id="a0ec02ba-428c-44d2-8bd2-5fe7b1687db9" data-name="workers-data-path36" d="M598.58,207.14v-1.23c0-.92-.15-2.16-.3-3.85s-.47-8.33-.77-14.19c-.62-12-1.55-28.53-2.47-46.88s-1.7-34.86-2.32-46.88c-.3-6-.46-10.8-.61-14.19S592,77,592,76.06c0,.93.16,2.16.31,3.86s.46,8.33.77,14.19c.62,12,1.55,28.53,2.47,46.88s1.7,34.85,2.31,46.88c.31,6,.47,10.79.62,14.19s.15,2.93.15,3.85v1.23" fill="#2f2e41" data-secondary="true"/>
<path id="f265cf2e-43a3-44af-b91d-6ac1616881bf" data-name="workers-data-path37" d="M591.8,40.75H449.31l-104.25-.47A25.5,25.5,0,0,0,331.79,50a29.63,29.63,0,0,0-5.08,12.49,30.49,30.49,0,0,0-.47,8.79c0,.93.16,1.7.16,2.32v.77a18,18,0,0,1-.47-3.09,37.69,37.69,0,0,1,.31-8.94,32.26,32.26,0,0,1,5.09-12.8,25,25,0,0,1,13.42-10H449l100.85.31h41l.93.62" fill="#2f2e41" data-secondary="true"/>
<path id="ad6da2c0-c0e5-4a64-965f-ce45509ce827" data-name="workers-data-path38" d="M591.64,382.33c0-2.93,0-123.22-.15-307.81l.31.31-265.09.77h-.47l.31-.31V382l265.25.31-265.4.31h-.31V75h.77L592,74.37h.31v.3c-.31,184.6-.46,304.89-.46,307.66" fill="#3f3d56"/>
<path id="b8dc7e58-4c1d-49d1-82c4-f458bdc3a8d7" data-name="workers-data-path39" d="M591.8,73.75c-13.73-18.81,2.16-32.85,7.56-33H346.75c-13.26,0-23.28,14-21,29.45a28.29,28.29,0,0,0,1.08,4.63" fill="#f5f5f5"/>
<path id="fadadb2c-0c5c-4b47-8634-6d9b0da4349b" data-name="workers-data-path40" d="M598.58,187.87h20.36v.46a15.67,15.67,0,0,1-6.17-4.16,25.13,25.13,0,0,1-4.62-7.71,61.59,61.59,0,0,1-2.78-9.87l-.93-5.4a17.38,17.38,0,0,1-.3-2.78,16.89,16.89,0,0,1-.16-2.93,104.5,104.5,0,0,1,.31-11.87c.31-4,.62-8.33,1.08-12.49.93-8.48,2-17.43,3.24-26.53.46-3.85,1.23-7.71,1.69-11.56l1.39-11.26c.31-3.7.77-7.25,1.08-11l.46-5.24a27.9,27.9,0,0,0-.3-5.09,36.32,36.32,0,0,0-2.32-9.41A19.89,19.89,0,0,0,605.83,44a8.94,8.94,0,0,0-6.94-1.85,10.74,10.74,0,0,0-6.17,3.08,17.09,17.09,0,0,0-3.85,5.55A23.36,23.36,0,0,0,587,56.94a19.4,19.4,0,0,0,.92,10.18,28.1,28.1,0,0,0,2.78,5.7l.77,1.39.31.46-.31-.46-.92-1.39a37,37,0,0,1-2.93-5.7,19.8,19.8,0,0,1-1.08-10.33,26.42,26.42,0,0,1,1.85-6.33,20.39,20.39,0,0,1,3.85-5.86,12.54,12.54,0,0,1,6.32-3.24,9,9,0,0,1,7.25,1.86,19.53,19.53,0,0,1,5.09,7.4,37.59,37.59,0,0,1,2.47,9.56c.15,1.69.31,3.39.31,5.24s-.31,3.55-.47,5.25-.77,7.24-1.07,10.94-.78,7.41-1.39,11.26-1.24,7.56-1.7,11.57c-1.23,9.1-2.31,17.89-3.24,26.52-.46,4.32-.77,8.48-1.08,12.49a104.67,104.67,0,0,0-.31,11.88,17.1,17.1,0,0,0,.16,2.77,17.27,17.27,0,0,0,.31,2.78l.92,5.4a60.55,60.55,0,0,0,2.62,9.71,22.82,22.82,0,0,0,4.48,7.56,15.39,15.39,0,0,0,5.86,4L620,188H598.58" fill="#2f2e41" data-secondary="true"/>
<path id="a401c287-9a30-4776-9339-7722fd36b5a5" data-name="workers-data-path41" d="M435,50c.16.15-.61,1.23-1.38,3.39a21.4,21.4,0,0,0-.93,4,25.49,25.49,0,0,0-.15,4.94,39.17,39.17,0,0,0,.77,4.93,30.51,30.51,0,0,0,1.39,3.7l1.85,3.24-.78-.61a17.27,17.27,0,0,1-1.54-2.16,24,24,0,0,1-1.69-3.86,24.4,24.4,0,0,1-.93-5.09,19.19,19.19,0,0,1,.31-5.24,21.4,21.4,0,0,1,1.08-4c.46-1.08.92-1.85,1.23-2.47L435,50" fill="#2f2e41" data-secondary="true"/>
<path id="a3db8f07-463e-48ba-a1f4-df1d09bb3e2c" data-name="workers-data-path42" d="M428.64,39.51c.16.16-1.54,1.55-3.39,4.78a25,25,0,0,0-2.47,14.35A20.35,20.35,0,0,0,429.41,71,24,24,0,0,0,434,74.06l-1.39-.46a14,14,0,0,1-3.55-2.16,20.41,20.41,0,0,1-6.94-12.65A23.71,23.71,0,0,1,424.79,44a14.7,14.7,0,0,1,2.62-3.55c.77-.62,1.23-1.08,1.23-.93" fill="#2f2e41" data-secondary="true"/>
<path id="b996ccbc-f977-43ab-86d8-fe01b1f38bfa" data-name="workers-data-path43" d="M481.69,360.28h89.44V294.89H481.69Zm89.6.15h-89.6V294.89h89.6Z" fill="#ccc"/>
<g id="a4623e20-baed-45f6-a9b4-d7378f1a64de" data-name="workers-data-path44 ts">
<path id="a3d312de-0620-44cb-8bee-4f098f893a4c" data-name="workers-data-path44" d="M549.54,342.24c-6.16-2.78-13.41,4.93-19.43,1.69-3.54-1.85-5.09-6.48-6.94-10.64s-4.78-8.33-8.48-7.86-6.94,5.7-10.79,4.47-3.55-3.86-4.17-6.79-.92-5.86-2.77-7.86-5.55-1.39-5.86,1.39v34.69h70c0,.16-9.41-8.17-11.57-9.09" fill="#2f2e41" data-secondary="true"/>
</g>
<path id="b8a156c4-33eb-4463-86bd-75327add2269" data-name="workers-data-path45" d="M563.12,351.49H525.18c-21,0-37.94,0-37.94-.16h75.88" fill="#e0e0e0"/>
<path id="b672ad52-1690-4f52-9114-559f3cd28045" data-name="workers-data-path46" d="M563.12,336.38H525.18c-21,0-37.94,0-37.94-.16h75.88" fill="#ccc"/>
<path id="a7aa9cc1-926d-406a-8eb2-899f9050826b" data-name="workers-data-path47" d="M563.12,321.11H525.18c-21,0-37.94,0-37.94-.16s17-.15,37.94-.15h37.94" fill="#ccc"/>
<path id="ec1b9bab-4cfe-48c2-84df-d01608f73262" data-name="workers-data-path48" d="M563.12,306.77H525.18c-21,0-37.94,0-37.94-.16h75.88" fill="#ccc"/>
<path id="b0a30c69-9878-4777-ae04-dc5cde57004c" data-name="workers-data-graphaxis" d="M571.44,279.16H361.1v-.31c0-38.4.15-71.4.15-94.84,0-11.72,0-21,.15-27.45,0,6.48,0,15.73.16,27.45,0,23.44,0,56.44.15,94.84l-.31-.3h210" fill="#2f2e41" data-secondary="true"/>
<g id="f272ceb1-3703-483e-8f07-8d7b0a7cfd78" data-name="workers-data-18 ts">
<rect id="b6c94d73-e9ad-46dd-a65b-fc661e7777c6" data-name="workers-data-18" x="378.52" y="246.47" width="21.28" height="24.98" fill="#2f2e41" data-secondary="true"/>
</g>
<g id="e6053080-ad57-4e44-b728-c49461513c91" data-name="workers-data-28 ts">
<rect id="a055420a-cb97-4534-b6ae-a90c716f2f7b" data-name="workers-data-28" x="409.52" y="228.58" width="21.28" height="42.87" fill="#2f2e41" data-secondary="true"/>
</g>
<g id="b7acc5d0-c441-4c27-952d-ba4434dd5683" data-name="workers-data-38 ts">
<rect id="a0e91ec8-ceee-4acb-b8d5-4b5f2095d7ee" data-name="workers-data-38" x="440.82" y="208.22" width="21.28" height="63.23" fill="#2f2e41" data-secondary="true"/>
</g>
<g id="add7dcf6-5668-44fd-adf0-59c5363c5500" data-name="workers-data-412 ts">
<rect id="b4c00e08-6d34-4433-a0e4-be14e70ad0ae" data-name="workers-data-412" x="471.05" y="185.71" width="21.28" height="85.9" fill="#2f2e41" data-secondary="true"/>
</g>
<g id="fd3aaa73-08af-4927-9c98-b2b4b79c2e72" data-name="workers-data-512 ts">
<rect id="e1ea857c-d953-4ed7-a4eb-951cbf3d9167" data-name="workers-data-512" x="502.05" y="156.72" width="21.28" height="114.89" fill="#2f2e41" data-secondary="true"/>
</g>
<g id="a18ca9cf-d728-4a29-820e-42fa3f22d730" data-name="workers-data-69 ts">
<rect id="b9f8566e-48e3-4731-9e1a-af30ceb34fb2" data-name="workers-data-69" x="532.74" y="134.51" width="21.28" height="135.86" fill="#2f2e41" data-secondary="true"/>
</g>
<path id="b4d80c82-2cd0-4bc4-8b28-12037bb56dd8" data-name="workers-data-back" d="M388.85,153.63s-2.62,27.61.78,42.87l31.3-1.69s-6.79-27.3-2.62-39.33Z" fill="#ebebeb"/>
<g id="b0e3cb3c-c5d7-48ab-8cad-9191e080124d" data-name="workers-data-front">
<path id="aa5f5692-ebbc-4ca4-a8a8-adc44a5743d3" data-name="workers-data-path49" d="M389,152.71s.15,29.91,1.54,39L422.32,190s-2.78-29.3-1.7-37.17Z" fill="#2f2e41" data-secondary="true"/>
<path id="f119b972-8f7b-4cfb-85ff-0362ecded08b" data-name="workers-data-path50" d="M415.69,165.2a88.29,88.29,0,0,1-10.64.92,86,86,0,0,1-10.64.47,90,90,0,0,1,10.64-.93l10.64-.46" fill="#fff"/>
<path id="e5526c96-f01a-4b08-bf72-f5999dfd9444" data-name="workers-data-path51" d="M415.69,171.52a90.4,90.4,0,0,1-10.64.93,88,88,0,0,1-10.64.46,90,90,0,0,1,10.64-.93l10.64-.46" fill="#fff"/>
<path id="a9a3bbdc-6f0d-4c62-b28b-47f0fdda5a40" data-name="workers-data-path52" d="M410.29,177.69l-1.7.31-4.31.31h-6.17l1.69-.31,4.32-.31h6.17" fill="#fff"/>
</g>
<path d="M535.16,302.44s-4.9,5.46-7.35,6.41-1.47-3.45-1.47-3.45-4,4.45-5.43,3.94,1-4.93,1-4.93a36,36,0,0,1-6.88,2.94c-3.46,1,3.44-5.88,3.44-5.88l9.3-5.43C530.72,295.56,535.16,302.44,535.16,302.44Z" fill="#f9b499"/>
<path d="M646.7,308.29l-15,45.81-18.77,6.69a12,12,0,0,1-10.51-1.22l-60-41.5s-6.22-3.34-7.7-3.34-4.93-2.45-4.93-2.45l-12.31-2.94s-1-2.94,1-2.94h11.26l-1-7.87a72.5,72.5,0,0,0-8.37-3.94c-2.94-1-8.34-6.4-4.41-6.4s17.72,5.88,17.72,5.88l11.58,13.59,62.06,26.16Z" fill="#f9b499"/>
<path d="M631.69,354.1l-18.81,6.66a12,12,0,0,1-10.52-1.22l-26-18.26,6.16-17.91,24.79,10.41,39.38-25.49Z" fill="#0071f2" data-primary="true"/>
<path d="M628.91,636.72s0,11.87-1.62,16.17-6.47.55-13.46.55-30.67-.5-35.51-5.88,0-6.47,5.38-8.08,27.94-9.14,27.94-9.14Z" fill="#0071f2" data-primary="true"/>
<path d="M627.2,652.89c-1.62,4.31-6.47.55-13.45.55s-30.68-.5-35.52-5.88c-1.88-2.08-2.29-3.52-1.79-4.59,3.45,1.51,9.72,3.41,20.59,4.88,13.5,1.73,24.86,2.29,30.88,2.48A14.93,14.93,0,0,1,627.2,652.89Z" fill="#2f2e41" data-secondary="true"/>
<path d="M698.29,637.34s7,15.61,2.14,18.83-39.85,2.15-44.11,2.15-3.22-4.32,1.61-7S680,635.72,680,635.72C685.37,635.72,698.29,637.34,698.29,637.34Z" fill="#0071f2" data-primary="true"/>
<path d="M656.3,658.33c-3,0-3.38-2.11-1.64-4.32a210.75,210.75,0,0,0,47.45-2.94c.1,2.26-.3,4.19-1.68,5.1C695.59,659.39,660.61,658.28,656.3,658.33Z" fill="#2f2e41" data-secondary="true"/>
<path d="M654.41,429.38c1.3,36.8-1.33,57.24-2.95,63.67s-5.92,37.1-8.07,44.66-3.22,23.7-4.84,38.23-9.69,60.85-9.69,60.85l-17.22-6.45V614.73c0-4.83,1.08-93.12,2.15-112.51s20-107,20-107C638.29,386.14,653.1,392.57,654.41,429.38Z" fill="#2f2e41" data-secondary="true"/>
<path d="M679,391.3a58.67,58.67,0,0,1,14.86,28.41c3.88,18.09-11.62,46.5-11.62,46.5s-11.37,49.46-8.68,56.46,15.62,36.05,16.69,56.51,8.08,58.16,8.08,58.16c-7.08,1.61-18.84.54-18.84.54s-7.55-9.62-9.69-18.76-23.13-65.24-28.52-91.07a460.37,460.37,0,0,1-9.42-82.5c-.65-28.41-1.28-57.47-1.28-57.47C640.22,396.52,679,391.3,679,391.3Z" fill="#2f2e41" data-secondary="true"/>
<path d="M689.92,322.81c.54,16.75-7.6,38.16-8.68,50s7.28,20.57,2.18,23.16-41.47,6.2-49.22,3.61S627,393,627,386.55s.1-35.35,1.57-46.67a30.1,30.1,0,0,1,.77-3.77c3-11.36,12.9-29.26,25.39-38.39,14-10.22,20.44-5.38,20.44-5.38C677.27,294.49,689.37,306.06,689.92,322.81Z" fill="#0071f2" data-primary="true"/>
<path d="M640.52,244.84c0-5.38,8.25-13.85,8.25-13.85,4.84-9.15,19.38,1.62,28,14.53s1.6,20.44-.54,26.36-1.11,25.3-3.22,25.3-18.3,2.16-18.3.54,2.15-17.75.53-17.22-11,4.57-13.19.29a22.63,22.63,0,0,1-1.5-4.31A54.3,54.3,0,0,1,639.22,257Z" fill="#f9b499"/>
<path d="M669.08,295.56c-3.93.85-18.42,10.62-21.78,10.62s-1.66-5.59.56-8.94S664,288.87,664,288.87C669,283.84,673,294.71,669.08,295.56Z" fill="#0071f2" data-primary="true"/>
<path d="M669.08,295.56c-3.93.85-18.42,10.62-21.78,10.62s-1.66-5.59.56-8.94S664,288.87,664,288.87C669,283.84,673,294.71,669.08,295.56Z" opacity="0.2"/>
<path d="M641.36,241.64c-17.22-3.77-11.45-21.92-1.76-25.68s12.38,4.31,17.22,3.24,18.85-8.08,31.22,0,11.33,28,17.22,39.82,28.54,21,38.23,55.42S725.18,358.57,722,371s5.4,32.84-8.6,39.29-32.29,1.61-39.29-16.69,1.07-33.91,6.45-53.27.53-21-1.62-25.84-12.89-7-17.74-18.82,7-22.62,8.6-30.15-5.38-5.38-12.37-14.53A48.57,48.57,0,0,1,648.77,231C644.46,234.77,641.39,241.59,641.36,241.64Z" fill="#2f2e41" data-secondary="true"/>
<path d="M675.48,316.75c4.72,6.29,2.53,18.1-.15,30.42-2.9,13.33-11.59,55.6-11.59,55.6a88.42,88.42,0,0,1-13.32,5.8c-5.79,1.75-53.29,21.29-53.29,21.29a20.55,20.55,0,0,1-6.94,5.18c-4.91,2.45-20.68,4.92-20.68,4.92s-5,3.43-5.88.49,12.31-14.71,12.31-14.71l15.82-4.41h.16a118.56,118.56,0,0,1,13.91-10.85c9.27-6.34,36.5-28.4,36.5-28.4s3.47-30.1,3.47-40,10-25.17,10-25.17" fill="#f9b499"/>
<path d="M675.49,316.91c5,6.09,2.53,18.1-.14,30.43-2.9,13.32-11.59,55.6-11.59,55.6a88.81,88.81,0,0,1-13.32,5.79c-1.68.51-6.9,2.53-13.45,5.13l-16-14.81c10.38-8.14,21.35-17,21.35-17s3.47-30.1,3.47-40c0-5.76,2.6-14.54,4.76-20.85,3.55-10.36,17-13.32,24.29-5.12C675.06,316.4,675.28,316.65,675.49,316.91Z" fill="#0071f2" data-primary="true"/>
<rect x="239.71" y="395.3" width="4.79" height="239.59" fill="#2f2e41" data-secondary="true"/>
<rect x="235.45" y="477.2" width="13.29" height="157.68" fill="#2f2e41" data-secondary="true"/>
<rect x="176.94" y="395.3" width="4.79" height="239.59" fill="#2f2e41" data-secondary="true"/>
<rect x="172.7" y="477.2" width="13.29" height="157.68" fill="#2f2e41" data-secondary="true"/>
<rect x="160.46" y="633.29" width="105.31" height="5.86" fill="#2f2e41" data-secondary="true"/>
<rect x="160.46" y="633.29" width="105.31" height="5.86" opacity="0.25"/>
<path d="M89.42,624.48a88.76,88.76,0,0,0-1,10.42,30.86,30.86,0,0,0,1.41,10.19s69.87,1.2,70.86,0,1.8-5.6-1.41-7.4-10.61-3.21-16.81-5.81-13-10.8-13-10.8Z" fill="#0071f2" data-primary="true"/>
<path d="M161.52,642.83,89,641.64a27.18,27.18,0,0,0,.86,3.45s69.85,1.21,70.86,0A4.71,4.71,0,0,0,161.52,642.83Z" fill="#2f2e41" data-secondary="true"/>
<path d="M133.7,454.4s-22.81-2.39-34.41-2-10,12-10,12,4,44.39,4,49.59-6.39,21.62-7.2,36,0,34.37,0,52.4,1.2,29.2,1.2,29.2,2.39,1.19,20,.4,23.6-9.21,23.6-9.21v-5.6c0-2.79-4-2-4-2s-2.4-2.81-1.6-15.21,2-55.21,4.41-70,4-68.8,4-68.8Z" fill="#2f2e41" data-secondary="true"/>
<path d="M95.08,270.64s-24.16,19.67-26.26,27.12C59.25,331.67,72,385.92,72,385.92l-8.73,80.15s18.35,6.38,29.12,7.18,12.77.39,12.77.39l.4-12.36L112,474.44l35.5-7.18s-9.18-84.17-9.18-90.55-2.39-44.67-3.19-51.85-11.56-28.72-11.56-28.72Z" fill="#0071f2" data-primary="true"/>
<path d="M100.62,270.1l-7.55,5S116.73,304.8,119,310.34s16.85,37.24,16.85,37.24-4.48-22.64-5-29.19-8.57-20.12-8.57-20.12l4,5.54-1.26-12.08-6-4.27Z" fill="#0071f2" data-primary="true"/>
<path d="M100.62,270.1l-7.55,5S116.73,304.8,119,310.34s16.85,37.24,16.85,37.24-4.48-22.64-5-29.19-8.57-20.12-8.57-20.12l4,5.54-1.26-12.08-6-4.27Z" opacity="0.25"/>
<path d="M152.39,239.5c0-.75.05-1.2.05-1.2s11.64-3.31,7.07-12.1-27.41-14.15-38.63-10.39-18.67,8.41-19.5,11.75-2.1,35.61-2.1,35.61l-4.15,7.47,21.19,25.75,8.3-13.29s7.48,5.41,10.38,5.41,10.81-15.38,10.81-15.38l.55-1.61A114.93,114.93,0,0,0,152.39,239.5Z" fill="#f9b499"/>
<path d="M101.4,227.6c-.72,2.89-1.77,27.43-2,34a56.18,56.18,0,0,0,13.13,1.12s-3.86-2.71-3.59-11.41,8.66-6.57,9.57-4.48.9,7.8,4.2,8.39,2.41-8.11,2.41-8.11,10.21,2.72,12,2.11-.61-14.7-.61-14.7a43.92,43.92,0,0,0,8.39,3c6.31,1.81,7.58.79,7.58.79s11.64-3.26,7.07-12.05-27.46-14.12-38.63-10.39S102.21,224.33,101.4,227.6Z" fill="#2f2e41" data-secondary="true"/>
<polygon points="121.65 287.86 114.88 274.71 124.62 283.15 121.65 287.86" fill="#f4a48e"/>
<polygon points="90.71 272.82 115.51 304.68 121.52 294.97 95.19 267.45 90.71 272.82" fill="#0071f2" data-primary="true"/>
<polygon points="90.71 272.82 115.51 304.68 121.52 294.97 95.19 267.45 90.71 272.82" opacity="0.25"/>
<path d="M166.33,375l13.35-2.35s4.23,3,6.75,3a36.11,36.11,0,0,0,6.38-.94s4.73,1.42,6.61,2,3.62,1.24,5.18.46-6.28-5.49-6.28-5.49l7.53,2.83s4.72,5,5.66,5A1.85,1.85,0,0,0,213.4,378c.31-1.09-7-12.56-7.55-13.66s-4-2.36-6.38-2L167,366.82Z" fill="#d1d3d4"/>
<path d="M164.6,379.11l11.17-2.4a35.62,35.62,0,0,0,9.18,2,11.59,11.59,0,0,0,5.58-1.2s9.18,2.39,11.17,3.59a11,11,0,0,0,5.58.8l3.59-.4s-2-5.59-3.19-6.78-12-9.58-13.56-9.58-28.32,2.8-28.32,2.8Z" fill="#f9b499"/>
<path d="M106.36,318.47l10.77,50.66L167,364.75l2,17.95L98,399.85s-5.59-.8-6.79-4.79-18.34-73.79-18.34-73.79a20.36,20.36,0,0,1,5.23-15.88,15.21,15.21,0,0,1,15.19-4.69C98.23,302.09,103.81,306.48,106.36,318.47Z" fill="#0071f2" data-primary="true"/>
<path d="M106.36,318.47l10.77,50.66L167,364.75l2,17.95L98,399.85s-5.59-.8-6.79-4.79-18.34-73.79-18.34-73.79a20.36,20.36,0,0,1,5.23-15.88,15.21,15.21,0,0,1,15.19-4.69C98.23,302.09,103.81,306.48,106.36,318.47Z" opacity="0.25"/>
<rect x="309.65" y="325.7" width="15.96" height="7.98" fill="#fff" stroke="#2f2e41" stroke-miterlimit="10"/>
<path d="M284,539.88a12.33,12.33,0,0,1-12.36-12.31V397.07a6.54,6.54,0,0,0-6.53-6.54H249.22a.77.77,0,0,1,0-1.54h15.85a8.08,8.08,0,0,1,8.07,8.08V527.54a10.77,10.77,0,0,0,10.78,10.79h0a10.79,10.79,0,0,0,10.8-10.79V339.45a10.74,10.74,0,0,1,10.73-10.73h3.59a.77.77,0,0,1,0,1.54h-3.59a9.2,9.2,0,0,0-9.19,9.19V527.54A12.34,12.34,0,0,1,284,539.88Z" fill="#2f2e41" data-secondary="true"/>
<rect x="242.66" y="386.8" width="13.93" height="7.23" fill="#2f2e41" data-secondary="true"/>
<rect x="242.66" y="386.8" width="13.93" height="7.23" fill="#fff" opacity="0.25"/>
<g id="a820c206-3be4-4c60-96e0-5d11a03dad6b" data-name="freepik--device-2--inject-1325">
<rect x="222.17" y="363.41" width="51.43" height="3.27" transform="translate(-159.08 535.6) rotate(-78.56)" fill="#2f2e41" data-secondary="true"/>
<rect x="193.33" y="388.35" width="51.43" height="3.27" fill="#2f2e41" data-secondary="true"/>
</g>
<rect x="60.23" y="124.02" width="11.1" height="1.54" fill="#fff"/>
<rect x="60.23" y="137.94" width="11.1" height="1.54" fill="#fff"/>
<rect x="60.23" y="151.86" width="11.1" height="1.54" fill="#fff"/>
<rect x="60.23" y="165.78" width="11.1" height="1.54" fill="#fff"/>
<rect x="60.23" y="179.69" width="11.1" height="1.54" fill="#fff"/>
<rect x="78.88" y="195.73" width="11.1" height="1.54" fill="#fff"/>
<rect x="111.27" y="195.73" width="11.1" height="1.54" fill="#fff"/>
<rect x="143.65" y="195.73" width="11.1" height="1.54" fill="#fff"/>
<rect x="176.04" y="195.73" width="11.1" height="1.54" fill="#fff"/>
<rect x="208.42" y="195.73" width="11.1" height="1.54" fill="#fff"/>
<rect x="240.81" y="195.73" width="11.1" height="1.54" fill="#fff"/>
<rect x="273.19" y="195.73" width="11.1" height="1.54" fill="#fff"/>
<rect x="78.88" y="124.02" width="205.41" height="1.54" fill="#fff"/>
<rect x="78.88" y="137.94" width="205.41" height="1.54" fill="#fff"/>
<rect x="78.88" y="151.86" width="205.41" height="1.54" fill="#fff"/>
<rect x="78.88" y="165.78" width="205.41" height="1.54" fill="#fff"/>
<rect x="78.88" y="179.69" width="205.41" height="1.54" fill="#fff"/>
<rect x="686.53" y="59.47" width="121.58" height="1.54" fill="#fff"/>
<rect x="686.53" y="95.55" width="121.58" height="1.54" fill="#fff"/>
<rect x="686.53" y="124.89" width="121.58" height="1.54" fill="#fff"/>
<rect x="686.53" y="160.98" width="121.58" height="1.54" fill="#fff"/>
<rect x="158.46" y="391.58" width="104.11" height="5.19" fill="#2f2e41" data-secondary="true"/>
<rect x="158.46" y="391.58" width="104.11" height="5.19" opacity="0.25"/>
</svg>