<svg xmlns="http://www.w3.org/2000/svg" xmlns:xlink="http://www.w3.org/1999/xlink" width="1636" height="1022" fill="none" xmlns:v="https://vecta.io/nano"><style><![CDATA[.B{fill:#f09959}.C{fill:#9ec8ff}.D{fill:#fff}.E{fill:#2e5b9a}.F{fill:#303c60}.G{fill:#3e6bab}.H{fill:#a2dff2}.I{fill:#e38540}.J{fill:#75a1de}.K{fill:#9cd499}.L{fill:#4476bd}.M{fill:#96cfe0}.N{fill:#a8ceff}.O{fill:#a86b48}.P{fill:#74b570}.Q{fill:#f39892}]]></style><path d="M275.747 141.436c210.876-78.264 425.226-9.066 570.6 141.604 72.706 75.35 185.373 49.33 300.073 23.282 114.64-26.02 231.3-52.04 312.18 23.134 110.42 102.664 59.83 366.623-91.6 480.942-205.8 155.408-972.48 160.06-1099.665 106.726C49.97 825.998 265.97 657.256 164.494 495.5 44.79 304.644 182.545 175.96 275.747 141.377v.06z" fill="#e7f3fe"/><path d="M1462.85 872.264c-105.57-5.15-464.683 3.59-573.904 6.976-109.222 3.414-235.995-4.504-301.84-16.1-65.845-11.627-446.517 1-429.23 32.23s169.6 13.98 342.33 26.52c172.74 12.568 561.244-1.56 648.884 0 87.63 1.56 168-3.15 280.93-9.42s94.03-37.233 32.83-40.206z" fill="#cce2ff"/><path d="M1153.62 272.35l-10.75-16.57c-3.12.353-6.3.56-9.54.56-4.74 0-9.37-.412-13.87-1.177l-11.6 15.982a100.3 100.3 0 0 1-16.4-5.798l1.06-19.72a83.81 83.81 0 0 1-18.58-14.276l-1.8.59V110.17l4.95 1.913c5.74-5.298 12.25-9.772 19.32-13.274l-.03-19.75c5.36-2.1 10.92-3.767 16.67-4.915l10.75 16.57c3.12-.353 6.3-.56 9.54-.56 4.74 0 9.36.412 13.9 1.148l11.57-15.982c5.68 1.472 11.16 3.414 16.4 5.798l-1.06 19.72c6.86 3.885 13.1 8.682 18.58 14.275l18.8-6.122c3.68 4.474 6.98 9.27 9.87 14.334l-12.46 15.305c3.2 7.035 5.5 14.57 6.65 22.487l18.8 6.064a100.51 100.51 0 0 1 .18 6.033c0 3.827-.24 7.624-.65 11.362l-19.08 5.062c-1.56 7.83-4.24 15.247-7.83 22.105l11.63 15.953c-3.15 4.915-6.7 9.507-10.6 13.774l-18.44-7.093c-5.74 5.298-12.25 9.772-19.32 13.274l.03 19.75c-5.33 2.1-10.92 3.768-16.66 4.916v.03zm-20.3-138.778c-21.9 0-39.7 17.777-39.7 39.676s17.76 39.676 39.7 39.676c21.93 0 39.7-17.748 39.7-39.676 0-21.9-17.78-39.676-39.7-39.676z" fill="#cee3ff"/><path d="M1187.48 219.048c-.47 0-.9-.147-1.3-.47-.9-.736-1-2.002-.27-2.885 9.9-11.9 15.34-26.96 15.34-42.472 0-7.417-1.2-14.717-3.62-21.663-.35-1.06.2-2.237 1.27-2.6 1.06-.383 2.24.206 2.6 1.265 2.53 7.388 3.83 15.1 3.83 22.988 0 16.453-5.77 32.465-16.3 45.062a1.97 1.97 0 0 1-1.56.736v.03zm-5.78-93.658a2 2 0 0 1-1.4-.56 65.78 65.78 0 0 0-22.88-14.098 2.06 2.06 0 0 1-1.24-2.62c.4-1.06 1.56-1.62 2.62-1.236 9.07 3.297 17.23 8.33 24.3 14.952.82.765.85 2.06.1 2.885-.4.44-.95.647-1.48.647v.03zm-63.78-16.537c-.9 0-1.74-.618-1.97-1.53-.27-1.1.38-2.208 1.47-2.473a71.18 71.18 0 0 1 17.32-2.148c1.14 0 2.06.912 2.06 2.03s-.92 2.03-2.06 2.03c-5.5 0-11.02.677-16.32 2.03-.18.03-.32.06-.5.06z" class="D"/><path d="M1065.5 323.543v-89.448l6.63-2.15v90.4l-6.63 1.237v-.03zm6.63-213.392l-6.63-2.56V83.66H470.452v25.52c-5.39-.177-10.807-.265-16.255-.265-4.86 0-9.688.06-14.576.206V74.36h632.51v35.79z" fill="#cee3ff"/><path d="M1072.13 454.134H439.62v-344.99c4.858-.147 9.717-.206 14.576-.206 5.42 0 10.837.088 16.255.265v323.06H1065.5V323.538l6.63-1.236v131.832z" fill="#c2ddff"/><path d="M1065.5 234.092V107.617l6.63 2.53v121.766l-6.63 2.178z" fill="#b6d5ff"/><path d="M470.434 432.268H1065.5V83.66H470.434v348.61z" class="D"/><path d="M977.867 263.812c28.363-26.99 76.833-26.373 75.803 14.716s2.38 44.945 14.04 66.5c40.5 74.79-48.26 70.376-85.278 72.848-37.016 2.443-33.954-67.255-27.416-105.872 6.537-38.646 14.547-40.265 22.822-48.182h.03z" class="F"/><path d="M991.062 499.38c-9.1 76.32-25.62 132.715-27.445 168.89L954.4 846.9s20.23-1.413 22.086-4.474 38.045-83.385 36.195-133.068c-1.86-49.654 36.16-125.18 36.16-125.18l-9.16-74.084-48.618-10.714z" class="L"/><path d="M999.816 532.608l-14.223 5.946c-3.858 24.194-8.157 45.945-11.926 65.253 22.615 14.63 34.303 63.34 39.313 93.098 2.56-33.318 18.3-73.583 28.03-95.864l-41.194-68.433z" class="G"/><path d="M1065.44 491.69s30.66 39.058 29.7 83.385c-1.47 67.46-8.84 86.74 3.97 157.47 5 27.637-11.04 118.027-11.04 118.027s-13.7 1.06-21.05-2.6c.6-6.652-8.87-114.672-27.3-164.326-8.93-24.047-21.5-91.39-28.24-130.037-6.75-38.617-7.98-46.593-5.5-46.593 2.44 0 59.5-15.335 59.5-15.335h-.03z" class="L"/><path d="M890.885 383.2s1.355-20.22-.824-26.46-20.997-11.685-20.997-11.685-.824 28.874 1.1 32.435c1.914 3.532 13.075 13.628 13.075 13.628l7.627-7.918h.03z" class="B"/><path d="M996.66 368.452c-43.082 46.358-57.13 65.843-60.397 65.843-10.22-18.043-44.172-56.19-44.172-56.19l-14.488 9.3s33.452 87.388 54.743 88.3c21.26.913 64.49-30.14 65.05-33.7s-.707-73.554-.707-73.554h-.03z" class="H"/><path d="M951.754 471.175c21.085-8.565 45.232-26.52 45.615-29.17.56-3.56-.707-73.554-.707-73.554l-24.707 26.902c-7.715 28.727-7.214 60.015-20.23 75.82h.03z" class="M"/><path d="M1040.42 337.956s41.22 20.662 50.2 57.218c9 36.557-17.64 81.737-20.9 105.813-3.27 24.106-78.54 28.345-78.54 2.532 0-24.724-18.846-77.234-17.786-90.626 2.503-31.376 48.386-69.816 48.386-69.816l18.6-5.15.03.03z" class="H"/><path d="M1028.46 290.6l17.7 54.54s-18.9 14.57-51.24 49.625c1.266-23.34 20.82-48.77 20.82-48.77l-13.4-51.51 26.12-3.914v.03z" class="B"/><path d="M1036.7 316.03l-8.24-25.43-26.12 3.914 13.4 51.51-3.24 5.357c12.6-9.36 20.35-20.986 24.2-35.32v-.03z" class="I"/><path d="M1018.7 302.913c-4.77 17.365-23.26 26.902-36.394 23.31-13.134-3.62-15.932-19.014-11.16-36.38s19.288-28.49 32.425-24.9c13.13 3.62 19.9 20.604 15.13 37.97z" class="B"/><path d="M987.95 479.065C993.692 515.356 972.4 593 972.4 593s12.692 2.885 50.74-.794 54.8-41.62 60.54-42.68c5.72-1.06 8.66 35.32 11.5 38.175 2.83 2.885 3.27-45.916-4.12-65.106-13.08-33.996-10.52-48.448-5.63-69.05 8.7-36.645-97.44 25.49-97.44 25.49l-.03.03z" class="H"/><path d="M955.345 829.028c3.416 13.922-3.327 24.93-12.397 32.995-7.362 6.534-29.978 9.33-28.918 12.597 1.1 3.267 27.8 4.297 36.8 2.944s11.455-5.7 22.645-5.7c7.333 0 8.717-5.975 5.448-13.333-3.27-7.388-4.417-11.45-1.472-18.072s-22.145-11.4-22.145-11.4l.03-.03zm133.515-.006c-.56 14.452-2.24 25.195 1.32 31.906 13.7 11.45 25.06 24.46 20.73 25.342-20.73 4.268-28.62-8.124-40.34-11.656-14.4-4.326 1.35-22.4-4.27-45.592-3.12-12.892 21.73-9.8 21.73-9.8l.86 9.8h-.03z" class="L"/><path d="M1094.1 534.453c-.82-4.532-1.85-8.624-3.1-11.832-13.07-33.996-10.5-48.447-5.62-69.05.38-1.62.53-3.06.5-4.297 1.1-3.68 2.15-7.388 3.03-11.155l-4.45-40.09L1052.43 360c-24 35.144-7.8 78.91-11.4 103.017s-43.82 54.864-43.82 54.864l1.295 8.565c1.795 11.744 12.695 19.897 24.445 18.25 16.58-2.296 38.3-6.917 48-15.894 9.36-8.683 17.67-1.972 23.14 5.622v.03z" class="M"/><path d="M1006.62 516.54s-17.76 4.974-19.88 6.063c-2.12 1.118-3.298 6.976-3.298 6.976s-10.16 8.83-6.272 11.95 10.837 11.037 20.054 7.358c5.656-2.266 10.016-22.988 13.726-23.135 3.7-.176-4.3-9.212-4.3-9.212h-.03z" class="B"/><path d="M1056.9 355.383c19 .53 36.22 34.76 42.22 64.43 6 29.67 12.3 71.876 12.3 71.876s-31.48 24.842-62.6 32.112c-27.15 6.328-41.02 8.8-41.02 8.8l-5.5-15.48 64.96-38.117s-23.88-44.974-26.27-78.91c-2.38-33.936 1.42-45.092 15.88-44.71h.03z" class="H"/><path d="M880.132 368.31l-47.38 9.507-6.008-30.08 47.352-9.507 6.037 30.08z" fill="#f5dc95"/><path d="M879.49 380.724c.648-12.45-5.507-29.404-9.07-29.374-3.534.03 1.09 11.125-.825 18.484-1.03 3.973 9.865 10.9 9.865 10.9h.03z" class="B"/><g class="F"><path d="M974.63 270.358c1.06 34.055 40.87 31.464 51.77 29.345 10.9-2.1-13.28 71.877 7.5 76.144 15.25 3.15 11.8-20.72 28.77-19.13 7.5.706 15.02 12.303 15.02 12.303s-1.12-7.123-6.86-12.303c-5.72-5.15-20.74-36.763-24.68-59.397-3.95-22.634-30.66-37.263-38.58-37.704s-27.266 8.536-27.266 8.536l-5.684 2.178v.03z"/><path d="M1033.53 383.553c-.53 0-1.08-.058-1.64-.176-6.66-1.413-9.87-8.39-10.16-21.987-.24-11.656 1.67-26.578 3.74-42.413l2.38-19.397c.06-.56.53-.942 1.1-.883s.94.56.88 1.09l-2.38 19.426c-3.95 30.61-7.7 59.514 4.86 62.193.38.088.76.118 1.18.118 7.18 0 13.66-14.01 17.43-27.668a1.02 1.02 0 0 1 1.24-.706 1.01 1.01 0 0 1 .7 1.236c-2.5 9.007-9.2 29.14-19.32 29.14v.03z"/><path d="M1030.87 391.477c-2.27 0-4.24-.883-5.9-2.62-13.57-14.334-.14-86.27.4-89.33.1-.53.62-.883 1.18-.794.53.088.9.618.8 1.177-.15.736-13.8 73.996-.94 87.594 1.5 1.59 3.26 2.207 5.4 1.913 7.04-.942 11.1-10.478 14.7-18.926 3.47-8.182 6.74-15.894 12.57-15.688a1.01 1.01 0 0 1 .97 1.031c-.02.56-.47 1-1.03.97h-.14c-4.36 0-7.37 7.034-10.55 14.48-3.8 8.918-8.1 19.044-16.28 20.103a8.66 8.66 0 0 1-1.24.088h.03z"/></g><path d="M1027.88 306.265c-2.8 3.62-7.22 4.886-9.8 2.855-2.62-2.03-2.47-6.593.35-10.214 2.8-3.62 7.2-4.885 9.8-2.855s2.47 6.593-.35 10.214z" class="B"/><g class="F"><path d="M718.55 432.42c9.718 19.426 1.678 41.796-17.433 49.684-19.23 7.947-40.285 3.443-50.003-15.983s-2.503-42.707 16.108-52.008 41.58-1.12 51.328 18.307z"/><path d="M666.17 484.453c-2.15 0-6.36-.765-11.75-5.533-4.417-3.915-7.568-9.92-8.922-16.895-1.68-8.8-.59-18.926 3.268-30.08.177-.53.737-.795 1.267-.618s.795.736.618 1.266c-3.74 10.83-4.83 20.603-3.2 29.08 1.267 6.563 4.21 12.156 8.275 15.776 6.832 6.034 11.396 4.945 11.426 4.945.53-.147 1.09.176 1.207.706.147.53-.147 1.06-.677 1.207-.06.03-.62.177-1.53.177l.03-.03z"/></g><path d="M695.88 508.003c11.072 2.472 25.03 33.2 31.862 52.892 6.89 19.838 18.582 44.474 26.238 52.126s57.953 25.4 57.953 25.4H690.197c2.562-.235 5.684-130.4 5.684-130.4v-.03z" class="N"/><path d="M761.876 628.532c-6.802-.97-31.362 2.178-20.908-2.178s8.982-9.948 8.982-9.948-14.812 12.39-17.492 1.56c-2.297-9.33-3.18-42.326-11.927-75.38-7.214-16.395-16.696-32.79-24.647-34.555l-.737 27.96 9.542 102.546 67.11-.03 15.342-.736s-18.463-8.24-25.266-9.212v-.03z" fill="#93bbf0"/><path d="M655.207 501.205l-43.376 23.84c-8.187 4.18 22.97 126.83 29.92 132.097 6.92 5.27 67.995.913 74.944-5.7s-5.33-26.96.678-67.638c6.007-40.706-18.346-75.82-21.468-75.76-3.12.088-23.558-6.8-23.558-6.8h-17.11l-.03-.03z" class="N"/><path d="M641.76 657.103c6.92 5.27 50.62 5.357 69.202-.412 2.09-.647 11.632-4.444 11.838-8.005-2.238-.413-11.16.647-14.783-.177-12.574-2.885-19.494-18.455-19.494-18.455s-6.92-2.502-22.4-9.065-9.1-26.402-9.482-35.173c-.354-8.742-15.313-37.35-43.377-59.014l-2.562 1.148c-2.002 19.926 24.648 124.297 31.068 129.153z" fill="#93bbf0"/><path d="M883.467 560.892h-84.72l-38.577 82.06h93.32l34.925-74.3c1.708-3.62-.942-7.77-4.947-7.77z" class="J"/><path d="M765.236 644.126h-50.974a5.72 5.72 0 0 1-5.713-5.71 5.72 5.72 0 0 1 5.713-5.71h47.322l32-68.815a5.68 5.68 0 0 1 7.598-2.767c2.856 1.325 4.122 4.74 2.768 7.594l-33.54 72.14c-.943 2.03-2.975 3.326-5.183 3.326v-.06z" class="G"/><path d="M676.8 626.585c22.115 4.12 27.563 9.213 39.607 11.156 13.664 2.207 12.044 5.21 1.885 5.21s-35.662.383-44.408-1.56 2.916-14.805 2.916-14.805z" class="B"/><path d="M609.073 527.34c-16.962 54.157-40.99 115.614-37.163 115.614s101.153 3.944 104.98.648c3.83-3.267 2.74-15.835 2.18-17.484s-55.333-11.36-55.333-11.36 7.215-14.07 9.954-41.53-21.438-56.19-24.648-45.917l.03.03z" class="N"/><path d="M668.105 454.138l-13.664 49.86s23.058 35.997 29.42 32.79c6.33-3.208-3.534-29.257-3.534-32.79s9.894-40.088 9.894-40.088l-22.115-9.802v.03z" class="B"/><path d="M680.798 506.53c-.294-1.177-.47-2.06-.47-2.53 0-3.532 9.894-40.088 9.894-40.088l-22.115-9.802-4.505 16.513c3.946 17.042 11.072 28.403 17.197 35.908z" class="I"/><g class="B"><path d="M719.204 453.308c2.592 14.452.884 33.672-11.956 38.557s-28.328-4.473-34.57-20.868c-6.243-16.424-.884-33.672 11.956-38.558s31.45 3.59 34.57 20.87z"/><path d="M675.706 461.433c1.796 5.063.235 10.213-3.505 11.567-3.74 1.325-8.216-1.707-10.012-6.74-1.796-5.063-.236-10.243 3.504-11.567s8.216 1.707 10.013 6.74z"/></g><g class="F"><path d="M719.35 435.115c-4.388 33.937-45.615 29.55-45.615 29.55s-8.5-11.185-12.34-5.327 5.3-34.408 28.977-35.674c7.774-.412 28.977 11.42 28.977 11.42v.03z"/><path d="M677.416 420.783c0 11.567-10.012 20.956-22.35 20.956s-22.35-9.39-22.35-20.956 10.013-20.957 22.35-20.957 22.35 9.39 22.35 20.957z"/></g><g class="E"><path d="M610.57 889.52h5.124l32.98-152.76h-11.25L610.57 889.52zm158.843-.004h-5.095l-38.4-158.145h11.22l32.275 158.145z"/><path d="M668.882 742.468c-20.466 0-33.423-3.68-41.698-11.714-10.248-9.978-12.368-25.46-12.398-45.622-.03-15.865-.412-26.196-1.266-34.555a5.72 5.72 0 0 1 5.095-6.269 5.72 5.72 0 0 1 6.272 5.092c.913 8.77 1.296 19.426 1.325 35.703.03 20.426 2.62 31.258 8.952 37.44 6.48 6.328 18.228 8.918 38.017 8.418 19.14-.47 32.305-3.15 42.876-5.298 13.93-2.826 23.97-4.857 35.897.824a5.72 5.72 0 0 1 2.709 7.623 5.7 5.7 0 0 1-7.627 2.679c-8.45-4.033-15.636-2.59-28.682.058-11.013 2.237-24.736 5.034-44.878 5.534l-4.594.06v.03z"/><path d="M622.38 643.602l31.332 1.295-8.333 86.446s-23.352-14.894-23-30.935 0-56.806 0-56.806z"/></g><path d="M777.008 651.656c26.474-4.032 35.485-2.737 51.7 27.403 16.197 30.14 37.782 84.444 50.21 91.45 18.7 10.567 24.883 36.44 32.54 35.29 7.686-1.177 12.603 2.237 4.27 9.154-8.334 6.946-21.82 12.833-26.444 11.596s-8.187-21.133-20.23-27.608-8.422-11.773-7.627-17.483-35.16-32.053-62.253-64.783c-16.55-20.015-25.09-33.2-26.355-45.18s4.18-19.838 4.18-19.838z" class="B"/><path d="M842.677 761.006c-6.155-15.6-12.31-41.354-18.11-64.96-8.245-33.583-16.903-41.53-22.38-45.12-6.626-1.648-14.46-.912-25.178.736 0 0-5.448 7.888-4.18 19.838 1.266 11.98 9.806 25.166 26.355 45.18 14.253 17.248 30.98 32.7 43.495 44.327z" class="I"/><path d="M785.077 678.2s-7.038 53.156-13.604 58.543c-4.683 3.855-8 4.12-11.308-11.744-3.27-15.865 5.094-75.026 5.094-75.026l19.818 28.197v.03z" class="E"/><path d="M779.455 706.974l-65.226 10.95 36.84-52.774 28.034-5.71 16.785 3.856-16.432 43.68z" class="B"/><g class="E"><path d="M861.437 781.5c-2.12 8.506-1.856 14.805 1.825 17.984 3.68 3.15 17.55 26.608 17.55 26.608l4.33-.648-10.012-21.457-13.693-22.487z"/><path d="M889.29 826.586c4.623 1.237 18.08-4.68 26.444-11.596 8.363-6.947 3.416-10.332-4.27-9.154-.442.06-.854.03-1.296-.06-3.828 8.565-16.43 14.982-20.495 5.945-4.035-8.947-21.29-26.784-28.27-30.6.03.147.03.265 0 .382-.795 5.71-4.417 11.038 7.627 17.484 12.044 6.475 15.607 26.372 20.23 27.608h.03z"/></g><path d="M643.876 653.78c-23.146 41.5-7.333 67.903 20.8 70.58s72.53-2.443 98.415-23.93 47.116-44.24 44.17-47.623c-2.974-3.385-163.376.97-163.376.97z" class="I"/><path d="M775.13 684.772c4.74-14.216 10.19-25.107 20.8-25.313 11.132-.206 17.963 5.563 18.435 23.753.56 21.663 1.325 93.363.324 125.24-.766 24.136 6.272 31.877 5.683 57.013-.442 18.955 19.76 9.39 11.956 19.22-5.36 6.77-21.35 4.533-31.156 3.296-8.746-1.118 4.535-27.314-7.568-34.32-10.395-6.004-10.6-15.776-4.034-23.164s.736-29.257-3.652-44.562-11.16-31.847-15.607-68.05c-1.266-10.33 1.973-24.49 4.86-33.142l-.03.03z" class="B"/><g class="E"><path d="M825.385 876.95c-3.357 1.03-7.48 2.15-11.072 2.267-7.304.235-9.483-7.77-9.954-18.66-.412-9.507-7.332-24.49-14.43-30.552-.118.176-.265.353-.412.5-6.567 7.388-6.36 17.16 4.034 23.164 12.103 7.005-1.178 33.2 7.568 34.32 9.806 1.236 25.796 3.473 31.156-3.297 5.065-6.387-1.237-6.887-6.92-7.74h.03z"/><path d="M791.17 827.792s-10.63 11.096-9.66 15.717 4.24 16.277 4.8 25.254l1.03 19.31s3.828 0 4.123-1.09 2.444-36.527 2.444-36.527l-2.74-22.664z"/></g><path d="M632.748 650.012s-13.723 58.22 3.622 74.378c17.345 16.13 89.345 1.62 106.307.647 11.484-.647 22.616 13.363 22.616 13.363s-8-32.494-2.562-58.72c5.477-26.226 14.282-27.992 14.282-27.992l-11.75-1.648H632.72l.03-.03z" class="J"/><path d="M629.62 634.792c5.86 12.45-6.33 33.937-2.06 40.147 4.27 6.18 28.74.854 44.76-12.01 16.02-12.892 46.35-15.717 46.35-15.717l-89.05-12.42z" class="N"/><path d="M654.45 740.878c48.47 1.824 99.504.97 99.504-6.27 0-7.2-2.18-12.332-39.725-9.418s-63.077 6.916-74.355 4.385c-11.308-2.56 14.576 11.303 14.576 11.303zm517.05-84.738H488.36c-2.915 0-5.27-2.354-5.27-5.268v-2.65c0-2.914 2.356-5.27 5.27-5.27h683.13a5.27 5.27 0 0 1 5.27 5.269v2.65c0 2.914-2.36 5.268-5.27 5.268z" class="E"/><path d="M1262.25 466.14c4.68 16.542-6.77 33.613-19.4 37.204-12.64 3.6-21.65-7.653-26.36-24.224-4.68-16.54 1.74-32.877 14.37-36.468s26.7 6.917 31.4 23.488zm-70.85 320.735s32.4 50.272 36.75 52.45 15.3 2.738 11.22 10.92-5.74 40.442-9.57 42.1-36.63 5.474-31.7 0c4.9-5.475 7.95-2.737 10.42-12.568s5.98-28.433 1.32-32.23c-4.65-3.826-33.1-38.263-33.1-38.263l14.63-22.4h.03zm-163.02 21.573S989 873.3 981.706 879.118c-7.273 5.828-31.36 14.57-11.66 16.04 19.67 1.472 29.153-6.563 41.555-10.213s27.7-5.828 21.88-15.306c-5.84-9.477-3.42-30.14 9.15-43.267 12.58-13.127-14.25-17.954-14.25-17.954v.03z" class="B"/><path d="M1229.3 658.08s-97.44-2.56-136.1 29.14c-22.6 34.26-77.27 135.305-81.54 146.43 2.92 2.914 19.32 8.183 26.62 7.447 21.5-25.637 49.95-47.8 61.25-67.903 13.93-24.783 18.23-37.175 40.82-39.353 22.6-2.178 73.65-9.477 88.96-9.477s0-66.314 0-66.314v.03z" fill="#6791c9"/><path d="M1314.3 895.34h-5.1l-36.63-152.76h11.22l30.5 152.76zm-153.06-.003h5.12l42.03-158.146h-11.22l-35.93 158.146z" class="E"/><path d="M1284.83 651.392l-56.66 9.772s-75.3.677-109.72 7.094c-31.33 5.827-35.93 41.383 0 90.36 20.4 27.815 37.66 50.007 72.94 75.026 8.98-6.593 12.4-9.066 14.9-24.93-2.56-3.503-9.16-25.4-11.22-29.7-19.52-40.794-45.55-55.6-45.94-59.632 4.36-7.093 115.88 37.028 138.06 11.067 21.17-24.783-2.36-79.087-2.36-79.087v.03z" class="J"/><path d="M1287.17 523.19c-14.93-2.1-30.13.736-44.35 11.037-12.43 12.657-26.47 33.525-25.6 67.962 1.1 43.71-6.77 46.534 1.4 58.543 34.2 14.128 92.7 74.79 78.92 9.743-9.98-47.094 21.88-82.178-3.83-134.423-2.1-4.238-4.7-8.388-6.6-12.862h.03z" fill="#f37168"/><path d="M1217.2 618.606c-.65 22.782-3.9 29.493-1.4 36.645 13.92 1.413 39.46 7.005 45.82 15.924 7.27 10.213 14.57 11.655 11.16 4.12-3.42-7.535-12.4-18.22 1.47-54.893 13.84-36.674 20.4-61.457 6.8-86.946l-63.84 85.15z" fill="#d54a41"/><path d="M1287.16 523.184c-9.2-21.75-11.46-46.18-11.46-46.18l-24.05 7.093s13.66 30.61.55 41.53c-2.8 2.325-6.03 5.15-9.4 8.565 14.22-10.272 29.42-13.127 44.35-11.038v.03z" class="B"/><path d="M1276.45 482.8l-5.07-4.504-19.64 5.8-.03.118c.47 1.09 5.48 12.744 6.13 23.958 5.86-3.56 12.25-9.33 19.58-19.426l-.97-5.945z" class="I"/><path d="M1270.26 530.02c-24.76 8.653-22.03 34.76-44.82 73.23-11.8 19.926-22.76 19.603-22.76 19.603s-27.68.235-61.16-3.856c-20.97-2.56-22.3 3.68-7.72 8.89 29.42 10.508 59.93 21.8 84.55 19.073 24.58-2.738 66.67-65.5 68.84-81.825 3-22.605-4.44-39.5-16.9-35.144l-.03.03z" class="B"/><path d="M1257.5 748.323c-1.53 0-3.12-.03-4.74-.06-20.14-.5-33.86-3.296-44.88-5.533-13.04-2.65-20.23-4.092-28.68-.06a5.73 5.73 0 0 1-7.63-2.708 5.73 5.73 0 0 1 2.71-7.623c11.93-5.68 21.97-3.65 35.9-.824 10.57 2.148 23.76 4.827 42.87 5.298 21.56.53 34.72-2.708 41.47-10.155 6-6.652 7.77-17.778 5.56-34.967l-2.15-14.923c-1.85-11.98-3.1-19.897-1.56-32.11 1.42-11.39 5.2-26.55 13.93-56.012.9-3.032 4.1-4.768 7.13-3.856 3.03.912 4.77 4.09 3.86 7.123-16.38 55.07-15.55 60.456-12.05 83.1l2.2 15.217c2.68 20.75 0 34.76-8.42 44.092-8.7 9.624-22.82 14-45.5 14h-.03z" class="E"/><path d="M1031.05 863.118c-26.12 12.774-40.164 20.073-48.556 19.396-1.973-.176-3.623-.353-4.977-.588-9.306 5.504-24.177 12.008-7.45 13.245 19.67 1.47 29.153-6.564 41.553-10.214s27.7-5.828 21.88-15.305c-1.12-1.825-1.95-4.032-2.45-6.534zM1231 840.396c-.65 20.662-3.5 41.147-16.14 45.033-3.36 1.03-6.42 1.177-9.1.824-2 2.443-4.4 2.472-7.68 6.092-4.92 5.475 27.88 1.65 31.7 0s5.48-33.877 9.57-42.1c3.36-6.74-3.4-8.3-8.36-9.86z" fill="#d54a41"/><path d="M1130.4 644.125h-83a5.69 5.69 0 0 1-5.18-3.326l-33.54-72.142a5.72 5.72 0 0 1 2.77-7.593c2.88-1.325 6.27-.09 7.6 2.766l32 68.816h79.34c3.18 0 5.74 2.56 5.74 5.7s-2.56 5.7-5.74 5.7v.06z" class="J"/><path d="M1147.76 619.724c-16.76-.235-33.4-10.243-41.67-8.77-8.27 1.442-35.25 20.162-31.83 20.898 3.4.735 24.8-10.36 25.53-10.508.73-.177 5.36 7.682 16.78 10.566 11.43 2.885.1-8.565 35.5 2.12 23.03 6.946-4.27-14.276-4.27-14.276l-.03-.03z" class="B"/><path d="M1284.72 503.347l2.47 19.838s-21.7 1.295-32.5 7.36-26.74 23.605-26.74 23.605l13.02-22.398 1.88-14.335 41.88-14.098v.03zm-9.25 24.285c-16.13-3.03-23.58 11.42-34 34.967-10.45 23.576-28.3 52.186-31.83 55.865-3.54 3.68-59.78 0-59.78 0s-1.7 16.276 0 18.22 11.42 1.707 11.42 1.707 3.9 3.1 7.54 5.563c3.65 2.443 34.52 7.064 48.86 6.358 14.34-.736 27.47-1.943 29.42-4.12 1.94-2.178 41.07-62.428 43.5-84.032 2.44-21.604-6.86-32.936-15.08-34.496l-.03-.03z" fill="#f2e5de"/><g class="F"><path d="M1227.94 428.53c-30.48 1.472-25.7 47.3-25.7 47.3s7.92 2.443 24.5-.295c-1.26-4.915-.73-17.483-.73-17.483s1.94 10.213 4.35 16.394c3.5 1.62 7.48.177 14.23-1.442 3.47 14.57 13.25 20.72 19.93 22.81 7.4 2.325 15.23 5.092 24 .736 8.75-4.386 3.95-49.066-.7-58.043-6.98-13.48-18.58-25.577-38.6-19.2-10.04 3.208-21.3 9.242-21.3 9.242l.03-.03z"/><path d="M1280.94 482.943l12.46 18.2s-13.8 34.496 26.36 50.125c31.45 12.245 27.77 33.8 13.54 55.482-14.2 21.693 8.5 40.618 8.5 40.618s3.48-24.017 34.04-28.55c41.67-6.18 53.48-62.104 22.35-90.066-25.76-23.135-33.6-3.974-51.03-24.754s-50.35-6.74-50.35-6.74l-12.08-17.572-3.8 3.267z"/><path d="M1412.52 584.963c-.15 0-.33-.03-.47-.117a1.02 1.02 0 0 1-.4-1.354c10.52-19.2 1.95-42.443-2.38-48.742-.47-.677-.9-1.354-1.36-2.06-4.24-6.623-9.5-14.835-37.6-19.897-6.75-1.207-12.2-5.2-17.97-9.478-11.98-8.8-25.6-18.778-55.12-5.18-.5.235-1.1 0-1.33-.5s0-1.1.5-1.324c30.6-14.07 44.68-3.738 57.13 5.386 5.6 4.092 10.87 7.977 17.14 9.095 28.98 5.2 34.5 13.834 38.96 20.78.44.707.88 1.354 1.3 2.002 2.6 3.797 5.8 11.655 7.12 20.662 1.15 7.8 1.27 19.367-4.65 30.14-.18.324-.53.53-.88.53v.058zm-138.22-83.465c-1.98 0-4.16-.176-6.45-.53-10.63-1.6-24.9-7.623-26-41.56-.02-.56.42-1 .98-1.03s1 .412 1.03.972c.47 14.04 3.27 24.43 8.27 30.905 3.83 4.915 8.92 7.7 16.02 8.77 9.93 1.5 16.5-.353 19.56-5.475.3-.47.9-.618 1.38-.353a1 1 0 0 1 .35 1.354c-2.77 4.62-7.83 6.946-15.1 6.946h-.03z"/></g><path d="M322.98 525.565c-35.367 20.22-84.604 104.283-74.21 118s66.17-22.34 66.17-22.34l8.04-95.66z" class="M"/><path d="M389.06 428.08c-13.516-.353-8.5-10.4-24.03-6.387-8.157 2.12-2.15 5.474-12.75 4.385s-15.843-2.178-17.168 4.74-1.973 9.125-7.097 10.214c-5.095 1.09-7.42 10.213 0 16.394s3.8 8.742 2.18 13.834c-1.65 5.092 3.946 5.474 6.98 10.213s-2.797 5.622 1.6 9.743c4.388 4.09 10.513 3.738 10.513 3.738l18.405-35.29 21.38-31.553v-.03z" class="F"/><path d="M664.306 851.685s19.67.56 34.984-5.474c15.313-6.005 25.708-15.306 22.97-4.386s-15.313 29.67-26.238 31.523c-10.925 1.825-14.753 13.863-20.8 13.863-6.007 0-14.753-13.863-30.066-20.78-13.958-6.298 19.14-14.746 19.14-14.746zm-155.13-1.845s8.275 11.42 22.675 19.337c14.87 8.212 32.04 12.156 21.4 15.835-10.63 3.7-26.2 6.594-41.374 2.18-10.66-3.1-23.146-3.74-26.445-8.772s3.888-17.66.884-36.526c-2.385-15.13 22.822 7.917 22.822 7.917l.03.03z" class="E"/><path d="M417.013 666.438s114.022 42.68 123.21 54.6 129.04 120.59 129.04 128.624c0 8.006-20.407 22.605-20.407 22.605s-102.802-63.046-128.304-95.1c-25.53-32.053-87.813-47.535-120.912-50.478-33.1-2.973 17.374-60.22 17.374-60.22v-.03z" class="G"/><path d="M421.404 666.44s78.007-2.914 94.792 0c16.756 2.914 53.536 2.885 29.507 70.758-18.847 53.186-25.1 120.53-25.1 120.53l-37.487 9.212s1.502-121.09 19.377-153.348c-13.016 2.15-36.928 6.33-70.086 15.806-61.487 17.572-95.205 8.77-95.205 8.77l-9.158-32.053 93.35-39.676z" class="L"/><path d="M356.253 465.117l-19.082 56.306 24.088 15.835 13.664-48.624-18.67-23.517z" class="O"/><path d="M363.413 529.576l11.485-40.97-18.67-23.488-6.98 20.604c2.415 18.6 8.216 33.966 14.135 43.885l.03-.03z" fill="#7a4e34"/><path d="M404.87 474.644c.62 17.13-7.803 31.935-21.173 33.26s-25.6-11.42-27.268-28.49c-1.68-17.042 7.804-31.935 21.173-33.26s26.297 1.472 27.268 28.492z" class="O"/><g class="H"><path d="M328.023 519.773c-58.512 39.5-22.115 103.312-9.276 149.964 10.955 39.735 10.572 63.723 12.22 63.723s41.875-6.005 64.844-26.784 38.488-40.883 38.488-40.883-29.418-5.24-39.047-43.268c-4.89-19.308-2.65-29.786-13.782-60.397s-53.477-42.325-53.477-42.325l.03-.03z"/><path d="M328.025 519.773l6.273-15.335s19.877 13.128 27.798 19.31 12.8 7.652 12.8 7.652 2.857 21.958 1 19.986c-23.44-25.107-47.882-31.612-47.882-31.612z"/></g><g class="E"><path d="M302.1 895.34h5.094l36.633-152.76h-11.22L302.1 895.34zm153.047-.003h-5.124L408 737.2h11.22l35.926 158.146z"/><path d="M359 748.287c-20.467 0-33.424-3.68-41.698-11.715-10.248-9.978-12.37-25.46-12.398-45.622-.06-42.384-2.415-51.126-14.34-76.998a5.73 5.73 0 0 1 2.797-7.593c2.886-1.325 6.273-.06 7.598 2.796 12.604 27.343 15.313 37.4 15.4 81.766.03 20.427 2.62 31.258 8.952 37.44 6.48 6.328 18.228 8.918 38.017 8.418 19.14-.47 32.305-3.15 42.876-5.298 13.93-2.826 23.97-4.856 35.897.824a5.72 5.72 0 0 1 2.709 7.623c-1.354 2.856-4.77 4.062-7.627 2.708-8.45-4.032-15.636-2.6-28.682.06-11.013 2.237-24.736 5.033-44.878 5.534l-4.623.06z"/></g><path d="M611.83 643.446h-82.984a5.72 5.72 0 0 1-5.713-5.71 5.72 5.72 0 0 1 5.713-5.71h79.332l32-68.815c1.325-2.855 4.74-4.12 7.598-2.767 2.856 1.325 4.122 4.74 2.768 7.594l-33.54 72.14c-.943 2.03-2.974 3.297-5.183 3.297v-.03z" class="G"/><path d="M330.197 577.286s14.576 44.445 32.628 62.84 54.36 24.577 65.727 23.87c-9.07-3.65-26.326-14-33.276-41.472-4.888-19.308-2.65-29.786-13.78-60.397-8.275-22.723-33.718-35.026-46.292-39.882 15.696 11.273 35.308 29.816 41.345 43.944 6.684 15.658-46.35 11.096-46.35 11.096z" class="M"/><path d="M531.47 616.28s25.148-11.48 27.887-10.4 30.625 17.925 30.625 20.72-24.618-10.4-24.618-10.4 2.74 7.3 1.1 10.773c-1.65 3.503-20.555 3.503-37.605 2.384-17.05-1.09 2.62-13.127 2.62-13.127v.03z" class="O"/><path d="M330.99 542.93c-23.175 47.505 56.334 95.658 103.538 99.926C481.703 647.152 537.77 631.7 537.77 631.7l-6.33-15.423s-94.527-12.333-96.913-14.07S339.5 525.504 330.99 542.9v.03z" class="H"/><path d="M361.152 466.74c2.15 5.65.59 11.48-3.534 13.04-4.093 1.56-9.158-1.766-11.308-7.417s-.56-11.48 3.534-13.04 9.158 1.766 11.308 7.417z" class="O"/><path d="M404.905 430.553c6.4-2.68 13.635-5.534 11.396 5.357-.97 4.738 0 3.414 1.708 7.77s-4.3 7.8-6.242 10.243 2.827 5.062-1.06 7.976-9.01-1.09-12.633 0c-10.807 3.238-9.482-5.268-15.548-7.034s-9.04-1.5-10.218 2.384c-1.15 3.885 4.24 16.69-.354 15.452-4.623-1.206-5.654 9.095-6.89 14.953-1.236 5.827-4.417-4.033-4.21-10.685.324-10.213-2.238-14.5-6.007-17.395-3.77-2.855-5.36-28.874 12.84-29.845 18.228-.972 18.346-2.738 26.12-4.386s8.187 6.446 11.102 5.2z" class="F"/><path d="M1426.77 727.72c11.63 10.596 6.57 21.222-2.03 40.913s-10.1 92.42-10.1 92.42l7.07-1s-1-74.76 8.6-94.952 13.67-30.287 22.24-23.724c8.6 6.564-25.77-13.627-25.77-13.627v-.03z" class="P"/><path d="M1420.4 713.97c1.4-6.3 9.8-13.098 21-18.867-1.68 9.27-7 24.43-1.47 27.55 7.45 4.18.74-16.984 3.6-28.6 10.5-5.15 23.2-9.33 34.84-11.42-.03.06-.03.088-.06.118-6.57 16.66-15.17 23.223-11.63 25.754 2.65 1.913 11.3-17.336 22.76-27.226 8.6-.47 15.87.707 20.14 4.12 6.66 5.268 11.1 9.92 4.42 25.93-3.83 2.737-8.78 4.68-14.52 5.268-15.16 1.53-22.23 2.03-11.63 7.064 5.18 2.473 13.9-.147 20.97-1.736-2.3 4.21-5.1 9.006-8.54 14.422-2.18 3.444-4.57 6.446-7.1 9.036-4.9.942-9.16.942-11.4-.03-7.06-3.032-25.26-12.627-29.8-8.595-4.44 3.944 33.7 6.446 31.04 16.512-18.5 10.655-39.64 5.593-43.38-4.21-5.03-13.127-23.55-16.217-19.3-35.143l.1.06z" class="K"/><path d="M1458.6 785.794c-20.23-15.158-40.93-1-51.54 15.158-10.6 16.16-3.03 52.5-3.03 52.5s4.04 0 4.04-1.5c0-1.53-11.14-42.914 15.16-61.605 16.43-11.685 28.3-6.063 29.8-.5 1.53 5.563-6.56 15.66-6.56 15.66l12.13-19.72z" class="P"/><path d="M1412.1 754.654c20.23 0 26.8 31.317 21.23 49.507-5.57 18.2-13.14 52.01-13.14 52.01l-5.06-5.063s19.2-47.476 14.66-68.697c-4.56-21.222-15.66-24.754-17.7-24.754-2.04 0 0-3.03 0-3.03v.03z" class="K"/><path d="M1429.06 804.27c1.42-1.883 3.2-3.443 5.34-4.474-.27 1.502-.62 2.944-1.07 4.327-2.53 8.3-5.47 19.81-7.95 29.934-.2-1.295-.56-3.297-1.1-6.358-.14-.735-.23-1.53-.3-2.354 1.97-6.74 3.86-14.07 5.06-21.075z" class="P"/><path d="M1434.6 804.42c38.4-16.16 18.17-38.35 52.04-23.694 2.38 1.03 5.3 3.62 8.18 7.212-3 .853-6.65 1.47-10.72.853-10.1-1.53-6.56 6.564 10.1 8.595 3.13.382 5.7.912 7.8 1.648 7.95 15.247 11.54 35.32-5.3 42.296-3.3 1.383-7.4 2.15-11.96 2.443-5.18-4.12 1.27-27.962-6.74-24.665-7.7 3.15 2.4 20.456 1.03 24.783-7.6-.148-16-1.384-24-3.356-3.18-1.766-5.6-4.15-6.33-7.3-2.54-10.596 14.13-17.16 14.66-26.255.47-8.36-6.12 18.396-23.53 22.34-15.75-7.358-23.2-17.336-5.24-24.9zm-27.35-28.573c4.04-8.595-6.56-10.597-6.06-4.033.44 5.828.5 19.956-5.48 23.812-10.3-1.12-24.3-5.27-34.9-11.597-.15-.854 0-1.737.44-2.62 4.56-9.094 33.86-16.66 24.76-19.7-7.24-2.413-19.93 11.833-30.15 19.014-6.16-4.65-10.25-10.213-10.25-16.394 0-8.388 10.22-17.895 23.4-22.428 5.92.588 11.46 3.856 20.06 8.712 12.72 7.2 9.77-4.444-2.24-11.36 10.4.53 20.73 4.974 28.38 15.57 0 0-.73 4.533 4.07 11.538 13.07 19.102-2.03 30.258-20.06 29.55 1.04-5.033 5.28-14.098 8.04-20.044l-.03-.03z" class="K"/><path d="M1457.4 784.936c9.9 7.623 20.85 16.57 34.34 22.605 13.5 6.063 10.78 25.813 10.78 25.813s2.03-17.07-9.22-22.9c-11.22-5.828-18.64-12.804-27.18-14.128-8.54-1.354-13.25-2.708-13.25-2.708s2.7-5.386 1.12-7.417c-1.56-2.03 3.4-1.295 3.4-1.295v.03zm48.7-89.623c-36.17 9.654-62.67 32.76-67.62 38.38-4.94 5.622-4.94 7.182-4.94 7.182l3.83 7.18 1.8-.912s-2.9-6.063 4.7-13.922c13.17-13.54 29.2-24.253 40.2-28.963s22-8.977 22-8.977l.03.03z" class="P"/><path d="M1406.28 895.336h13.82c9.83 0 17.78-7.947 17.78-17.778v-31.73h-49.38v31.73c0 9.83 7.95 17.778 17.78 17.778z" class="J"/><path d="M1388.5 854.993h49.4v-3.473h-49.4v3.473zm0 4.9h49.4v-2.03h-49.4v2.03z" class="D"/><path d="M820.42 183.38c0-37.4-30.096-67.785-67.406-68.286-37.487-.47-68.584 29.7-69.202 67.167-.295 18.278 6.626 34.967 18.08 47.388 5.27 5.7 8.216 13.216 8.216 20.986v30.61c0 19.81 16.196 35.997 36.014 35.997h12.015c19.818 0 36.015-16.188 36.015-35.997v-30.61c0-7.86 3.033-15.364 8.333-21.133 11.16-12.156 17.963-28.344 17.963-46.122h-.03z" fill="#f5dc95"/><path d="M757.245 303.14H746.91c-17.05 0-30.98-13.952-30.98-30.964v-26.343c0-6.68-2.533-13.127-7.068-18.072-9.865-10.685-15.784-25.02-15.548-40.765.5-31.995 26.856-57.778 58.778-57.778h.765c32.098.412 57.983 26.55 57.983 58.72 0 15.306-5.86 29.228-15.43 39.677-4.564 4.974-7.156 11.42-7.156 18.19v26.314c0 17.042-13.928 30.964-30.98 30.964l-.03.06z" fill="#faeeca"/><g fill="#94bdf2"><path d="M762.2 262.906H739.7c-1.06 0-1.944-.794-2.032-1.854-.03-.44-4.24-43.856-23.647-55.982-.97-.59-1.237-1.855-.648-2.826.59-.942 1.856-1.236 2.827-.647 18.935 11.86 24.324 48.418 25.355 57.218h18.493c-.088-3.03.088-8.86 1.855-16.394 2.327-10.096 8.04-25.284 21.998-40.5.765-.824 2.06-.883 2.886-.117s.883 2.06.117 2.884c-25.53 27.785-22.704 55.66-22.674 55.924.06.588-.118 1.148-.5 1.59s-.942.677-1.53.677v.03z"/><path d="M721.15 184.585c-1.355 0-2.503.235-3.446.794-2.002 1.178-3.033 4.033-3.092 8.477-.03 4.7 1.002 7.74 3.092 9.007 5.036 3.06 16.844-2.62 28.152-8.595-9.128-4.886-18.728-9.713-24.706-9.713v.03zm33.393 9.713c11.22 5.975 22.97 11.685 28.153 8.624 2.18-1.266 3.298-4.327 3.357-9.095.058-4.504-.913-7.388-2.886-8.595-5.006-3.06-17.198 3.002-28.624 9.066zm24.5 13.54c-7.597 0-17.963-5.386-28.86-11.244-14.076 7.506-27.24 14.217-34.6 9.772-3.475-2.1-5.124-6.2-5.065-12.538.06-5.975 1.767-10.008 5.095-11.98 7.36-4.356 20.554 2.6 34.57 10.125 14.282-7.623 27.74-14.716 35.102-10.242 3.298 2 4.947 6.092 4.86 12.126-.1 6.3-1.885 10.508-5.36 12.568-1.65.972-3.592 1.413-5.742 1.413zM759.335 326.95H746.26c-4.623 0-8.392-3.767-8.392-8.388v-1.236a8.41 8.41 0 0 1 8.392-8.389h13.075a8.41 8.41 0 0 1 8.393 8.389v1.236a8.41 8.41 0 0 1-8.393 8.388z"/><path d="M708.103 259.226v21.663c0 20.72 16.962 37.704 37.723 37.704H758.4c20.76 0 37.722-16.954 37.722-37.704v-21.663h-88.02z"/></g><g class="C"><path d="M795.734 266.052H709.57a4.93 4.93 0 0 1-4.918-4.916v-.56c0-2.708 2.21-4.915 4.918-4.915h86.164c2.7 0 4.918 2.207 4.918 4.915v.56c0 2.708-2.208 4.916-4.918 4.916z"/><path d="M796.028 273.83l-85.516 10.567c-2.68.324-5.153-1.59-5.477-4.268l-.06-.53c-.324-2.678 1.6-5.15 4.27-5.474l85.516-10.567c2.68-.324 5.153 1.6 5.477 4.268l.06.53c.324 2.678-1.6 5.15-4.27 5.474z"/><path d="M796.028 288.778l-85.516 10.566c-2.68.324-5.153-1.6-5.477-4.268l-.06-.53c-.324-2.68 1.6-5.15 4.27-5.475l85.516-10.567c2.68-.323 5.153 1.6 5.477 4.268l.06.53c.324 2.68-1.6 5.15-4.27 5.475zm-5.265 16.007l-71.204 8.8a4.57 4.57 0 0 1-5.036-3.915l-.176-1.354c-.295-2.472 1.472-4.7 3.916-5.033l71.234-8.8a4.57 4.57 0 0 1 5.036 3.915l.176 1.354c.295 2.472-1.472 4.7-3.916 5.033h-.03zm616.597 19.4h45.9c0 25.166-20.73 45.887-45.9 45.887s-45.9-20.72-45.9-45.887 20.73-45.887 45.9-45.887v45.887z"/></g><g class="Q"><path d="M1461 317.774c0-25.342-20.55-45.887-45.9-45.887v45.887h45.9zm-91.83.002c0 25.343 20.56 45.887 45.9 45.887-25.18 0-45.9-20.72-45.9-45.887z"/><path d="M1415.05 271.887c-25.35 0-45.9 20.545-45.9 45.887 0-25.166 20.74-45.887 45.9-45.887zm.01 91.776c25.35 0 45.9-20.544 45.9-45.887 0 25.166-20.73 45.887-45.9 45.887z"/></g><path d="M508.97 322.825h10.012v-28.992H508.97v28.992zm128.518.01H647.5V303.26h-10.013v19.573zm-86.014-.004h10.012v-67.844h-10.012v67.844zm21.223 0h10.042v-30.493h-10.042v30.493zm21.266.002h10.013v-39.117h-10.013v39.117zm-63.755-.004h10.04v-48.123h-10.04v48.123zm85.08.002H625.3v-59.28h-10.012v59.28z" class="C"/><path d="M238.827 236.982l-23.352-14.275c-5.42 8.83-15.166 14.716-26.297 14.716a31.87 31.87 0 0 1-4.771-.353l-4.21 27.02a60.07 60.07 0 0 0 8.982.677c20.996 0 39.4-11.126 49.65-27.815v.03z" class="H"/><path d="M240.44 179.103l-24.147 12.862c2.356 4.356 3.71 9.36 3.71 14.658 0 5.886-1.65 11.4-4.535 16.07L238.82 236.9a57.94 57.94 0 0 0 8.51-30.287c0-9.95-2.503-19.31-6.92-27.52h.03z" class="K"/><path d="M134.572 186.52l25.68 9.448c4.33-11.773 15.636-20.16 28.917-20.16 11.72 0 21.9 6.534 27.122 16.158l24.06-13.01c-9.836-18.16-29.065-30.493-51.18-30.493-25.06 0-46.41 15.835-54.596 38.028v.03z" class="C"/><path d="M180.214 264.09l4.21-27.02c-14.754-2.295-26.062-15.04-26.062-30.434 0-3.738.678-7.33 1.885-10.655l-25.678-9.448c-2.297 6.27-3.564 13.04-3.564 20.103 0 29.05 21.32 53.128 49.208 57.454z" class="Q"/><path d="M133.925 188.433l25.708 9.478a28.27 28.27 0 0 1 1.414-3.827l-25.708-9.477-1.414 3.826z" class="D"/><path d="M239.877 235.145l-6.538-3.944-16.844-10.3c-.648 1.206-1.354 2.384-2.15 3.502l16.727 10.213 6.626 4.062a53.85 53.85 0 0 0 2.149-3.532h.03zm-22.675-41.354l9.335-5.033 11.838-6.27 3.003-1.56-2.03-3.738-24.09 13.01c.737 1.148 1.384 2.355 1.944 3.59zm-30.744 43.503c-1.384-.118-2.738-.324-4.034-.618l-4.24 27.05 4.034.618 4.24-27.05z" fill="#e7f3fe"/><path d="M526.35 217.903H356.8c-1.856 0-3.328-1.5-3.328-3.326V141.64c0-1.854 1.502-3.326 3.328-3.326h169.56c1.855 0 3.327 1.5 3.327 3.326v72.936c0 1.854-1.5 3.326-3.327 3.326z" class="C"/><g class="D"><path d="M522.17 214.165H360.974a2.7 2.7 0 0 1-2.709-2.708V161.9a2.7 2.7 0 0 1 2.709-2.708H522.17a2.7 2.7 0 0 1 2.709 2.708v49.566a2.7 2.7 0 0 1-2.709 2.708zm-156.043-63.82h-3.916a1.51 1.51 0 0 1-1.502-1.501v-3.208a1.51 1.51 0 0 1 1.502-1.501h3.916a1.51 1.51 0 0 1 1.502 1.501v3.208a1.51 1.51 0 0 1-1.502 1.501z"/><use xlink:href="#B"/><use xlink:href="#B" x="12.581"/></g><path d="M518.098 171.25H430c-1.442 0-2.62-1.177-2.62-2.65 0-1.442 1.178-2.65 2.62-2.65h88.108a2.66 2.66 0 0 1 2.65 2.649 2.66 2.66 0 0 1-2.65 2.649zm-66.285 40.644h-88.137a2.66 2.66 0 0 1-2.651-2.649 2.66 2.66 0 0 1 2.651-2.649h88.137c1.443 0 2.62 1.178 2.62 2.65 0 1.442-1.178 2.65-2.62 2.65zm16.225 0h-9.13c-.5 0-.912-.412-.912-.912v-3.473a.92.92 0 0 1 .912-.913h9.13a.92.92 0 0 1 .913.913v3.473c0 .5-.412.912-.913.912zm13.762 0h-9.13a.92.92 0 0 1-.913-.912v-3.473a.92.92 0 0 1 .913-.913h9.13c.5 0 .912.412.912.913v3.473c0 .5-.412.912-.912.912zm37.13-29.172H372.987c-.972 0-1.796-.794-1.796-1.795 0-.972.795-1.796 1.796-1.796H518.93c.972 0 1.797.795 1.797 1.796 0 .97-.795 1.795-1.797 1.795zm0 7.718H372.987c-.972 0-1.796-.795-1.796-1.795 0-.972.795-1.796 1.796-1.796H518.93c.972 0 1.797.795 1.797 1.796 0 .97-.795 1.795-1.797 1.795z" class="C"/><path d="M959.197 167.194h-75.27v-43.826h56.6l18.67 18.66v25.165z" fill="#ffb8b3"/><path d="M939.144 123.368v23.4h20.053v-4.504L940.4 123.486l-1.266-.118z" class="Q"/><path d="M940.538 123.368v18.896h18.67l-18.67-18.896z" fill="#ffb8b3"/><g class="D"><use xlink:href="#C"/><use xlink:href="#C" y="6.797"/><use xlink:href="#C" y="13.955"/></g><use xlink:href="#D" class="G"/><path d="M624.67 182.08l-46.97-9.066 10.925-56.6 46.97 9.095-10.925 56.57z" fill="#fae8b6"/><path d="M625.675 149.972l-24.883-4.798c-.648-.117-1.1-.765-.972-1.442.118-.648.766-1.1 1.443-.97l24.884 4.797c.647.118 1.1.766.97 1.443-.117.647-.765 1.1-1.443.97zm-1.207 6.208l-24.883-4.797c-.677-.118-1.1-.766-.972-1.442.118-.648.766-1.1 1.443-.972l24.913 4.798c.648.118 1.1.765.972 1.442-.118.648-.766 1.1-1.443.97h-.03zm-1.236 6.382l-24.883-4.798c-.678-.118-1.1-.765-.972-1.442.118-.648.766-1.1 1.443-.97l24.913 4.797c.648.118 1.1.765.97 1.442-.117.648-.765 1.1-1.442.972h-.03z" class="C"/><path d="M608.802 124.006c-.206 1.12-1.295 1.825-2.385 1.62-1.12-.206-1.826-1.295-1.62-2.384a2.04 2.04 0 0 1 2.386-1.619c1.12.206 1.825 1.295 1.62 2.384z" class="G"/><path d="M993.918 228.523l-72.677-7.653 4.8-45.533 57.63 6.063 13.457 16.63-3.2 30.493z" class="C"/><path d="M982.636 184.67l-54.095-5.7-4.064 38.44 67.26 7.064 2.385-22.487-13.163-1.383 1.678-15.924z" class="D"/><path d="M975.304 198.624l-35.043-3.68a1.48 1.48 0 0 1-1.296-1.619c.1-.794.795-1.383 1.62-1.295l35.043 3.68a1.48 1.48 0 0 1 1.296 1.619c-.1.795-.796 1.384-1.62 1.295zm-.82 7.704l-35.043-3.68a1.48 1.48 0 0 1-1.296-1.619c.1-.794.796-1.383 1.62-1.295l35.043 3.68a1.48 1.48 0 0 1 1.296 1.618 1.46 1.46 0 0 1-1.62 1.295zm-.85 8.077l-35.042-3.68a1.48 1.48 0 0 1-1.296-1.618 1.48 1.48 0 0 1 1.619-1.295l35.043 3.68a1.46 1.46 0 0 1 1.296 1.619c-.088.794-.795 1.383-1.62 1.295z" class="C"/><use xlink:href="#D" x="33.934" y="59.168" class="G"/><path d="M1355 150.357c0 13.863-11.22 25.077-25.1 25.077-13.84 0-25.1-11.214-25.1-25.077s11.25-25.077 25.1-25.077a25.09 25.09 0 0 1 25.09 25.077z" class="K"/><path d="M1327.45 158.952h-.06c-.32 0-.65-.176-.88-.412l-6.83-7.74a1.24 1.24 0 0 1 .11-1.736c.5-.442 1.3-.412 1.74.117l5.95 6.77 13.63-13.333c.48-.47 1.27-.47 1.74.03a1.25 1.25 0 0 1 0 1.737l-14.58 14.245c-.23.236-.53.354-.85.354l.03-.03z" class="D"/><g class="C"><path d="M199.392 383.17H344.07c3.7 0 6.743-3.03 6.743-6.74v-51.656c0-3.708-3.033-6.74-6.743-6.74H199.392c-3.7 0-6.744 3.032-6.744 6.74v51.656c0 3.71 3.034 6.74 6.744 6.74z"/><path d="M331.7 373.337v35.94l-41.433-41.413 41.433 5.474z"/></g><path d="M206.543 376.69h130.365a5.72 5.72 0 0 0 5.713-5.71v-40.795a5.72 5.72 0 0 0-5.713-5.71H206.543a5.72 5.72 0 0 0-5.713 5.71v40.795a5.72 5.72 0 0 0 5.713 5.71z" class="D"/><g class="C"><path d="M265.414 337.396h64.05c1.53 0 2.797-1.266 2.797-2.796s-1.266-2.796-2.797-2.796h-64.05c-1.532 0-2.798 1.265-2.798 2.796s1.266 2.796 2.798 2.796z"/><use xlink:href="#E"/><use xlink:href="#E" y="6.094"/><path d="M1269.32 337.633h7.57c1.62 0 2.9-1.295 2.9-2.885v-6.24a2.89 2.89 0 0 0-2.9-2.885h-7.57c-1.62 0-2.88 1.295-2.88 2.885v6.24c0 1.6 1.3 2.885 2.88 2.885zm-24.32 0h7.6c1.62 0 2.9-1.295 2.9-2.885v-6.24a2.89 2.89 0 0 0-2.9-2.885h-7.6a2.88 2.88 0 0 0-2.88 2.885v6.24c0 1.6 1.3 2.885 2.88 2.885zm-24.34 0h7.6c1.6 0 2.9-1.295 2.9-2.885v-6.24a2.89 2.89 0 0 0-2.9-2.885h-7.6c-1.62 0-2.88 1.295-2.88 2.885v6.24c0 1.6 1.3 2.885 2.88 2.885z"/></g><defs ><path id="B" d="M378.666 150.346h-3.917a1.51 1.51 0 0 1-1.501-1.501v-3.208a1.51 1.51 0 0 1 1.501-1.501h3.917a1.51 1.51 0 0 1 1.502 1.501v3.208a1.51 1.51 0 0 1-1.502 1.501z"/><path id="C" d="M925.955 139.815h-33.54a1.32 1.32 0 1 1 0-2.649h33.54a1.32 1.32 0 1 1 0 2.649z"/><path id="D" d="M921.562 126.712c0 1.236-1 2.237-2.238 2.237s-2.238-1-2.238-2.237 1-2.237 2.238-2.237 2.238 1 2.238 2.237z"/><path id="E" d="M211.91 348.146h118.793a1.57 1.57 0 0 0 1.56-1.56v-.03a1.57 1.57 0 0 0-1.56-1.56H211.91a1.57 1.57 0 0 0-1.56 1.56v.03a1.57 1.57 0 0 0 1.56 1.56z"/></defs></svg>